<svg xmlns="http://www.w3.org/2000/svg" aria-hidden="true" style="position:absolute;width:0;height:0;overflow:hidden"><defs><symbol id="icon-Ellipse-16" viewBox="0 0 32 32"><path fill="#705a66" d="M32 16c0 8.837-7.163 16-16 16S0 24.837 0 16 7.163 0 16 0s16 7.163 16 16z" style="fill:var(--color1, #705a66)"/></symbol><symbol id="icon-Frame-134" viewBox="0 0 41 32"><path fill="#705a66" d="M2.824 0h35.765a2.824 2.824 0 0 1 0 5.648H2.824a2.824 2.824 0 0 1 0-5.648zM2.824 13.176h35.765a2.824 2.824 0 0 1 0 5.648H2.824a2.824 2.824 0 0 1 0-5.648zM2.824 26.353h35.765a2.824 2.824 0 0 1 0 5.648H2.824a2.824 2.824 0 0 1 0-5.648z" style="fill:var(--color1, #705a66)"/></symbol><symbol id="icon-Calendar-today" viewBox="0 0 32 32"><path fill="#705a66" d="M26.574 4h-1.329V1.333h-2.657V4H9.301V1.333H6.644V4H5.315a2.67 2.67 0 0 0-2.657 2.667V28a2.67 2.67 0 0 0 2.657 2.667h21.259A2.67 2.67 0 0 0 29.231 28V6.667A2.67 2.67 0 0 0 26.574 4zm0 24H5.315V10.667h21.259V28z" style="fill:var(--color1, #705a66)"/></symbol><symbol id="icon-Union" viewBox="0 0 35 32"><path fill="#705a66" d="M30.16 31.22a1.28 1.28 0 1 0 1.81-1.81L19.082 16.522l14.32-14.32a1.28 1.28 0 1 0-1.81-1.81l-14.32 14.32L3.33.77a1.28 1.28 0 1 0-1.81 1.81l13.942 13.942-12.51 12.51a1.28 1.28 0 1 0 1.81 1.81l12.51-12.51L30.16 31.22z" style="fill:var(--color1, #705a66)"/></symbol><symbol id="icon-whatsapp" viewBox="0 0 32 32"><path fill="none" stroke="#f5f7f8" stroke-linecap="round" stroke-linejoin="round" stroke-width="1.264" d="M16 10.963a2.154 2.154 0 0 1 2.158 2.159M16 5.207a7.917 7.917 0 0 1 7.915 7.915M16 8.085a5.035 5.035 0 0 1 5.037 5.037m-10.074 5.037c1.871 1.871 6.001 4.317 7.915 4.317a3.643 3.643 0 0 0 3.598-2.879v-1.439s-1.77-.864-2.878-1.439-2.878 1.439-2.878 1.439a9.385 9.385 0 0 1-3.598-2.159 9.385 9.385 0 0 1-2.159-3.598s2.015-1.77 1.439-2.878-1.439-2.878-1.439-2.878H9.524a3.643 3.643 0 0 0-2.879 3.598c0 1.914 2.447 6.044 4.317 7.915z" style="stroke:var(--color2, #f5f7f8)"/><path fill="none" stroke="#f5f7f8" stroke-linecap="round" stroke-linejoin="round" stroke-width="1.264" d="M16 .889C8.157.889.889 2.155.889 13.841c0 7.484 2.993 10.693 7.196 12.031v3.756a1.437 1.437 0 0 0 .926 1.493 1.436 1.436 0 0 0 1.679-.514l3.368-3.843h1.943c7.843 0 15.111-1.252 15.111-12.952S23.844.888 16.001.888z" style="stroke:var(--color2, #f5f7f8)"/></symbol><symbol id="icon-Arrow-4" viewBox="0 0 55 32"><path fill="#705a66" d="M25.004 29.853a3.429 3.429 0 0 0 4.849 0L51.672 8.034a3.429 3.429 0 0 0-4.849-4.849L27.428 22.58 8.033 3.185a3.429 3.429 0 0 0-4.849 4.849l21.819 21.819zM24 22.857v4.571h6.857v-4.571H24z" style="fill:var(--color1, #705a66)"/></symbol><symbol id="icon-Vector-3" viewBox="0 0 32 32"><path fill="#ddd5c6" d="M7.864 2.363a.681.681 0 0 0-.481.192.668.668 0 0 0-.2.478v1.519L5.218 6.517V2.211a1.82 1.82 0 0 1 .53-1.287A1.846 1.846 0 0 1 7.032.397h23.557c.48.002.941.191 1.284.527.333.344.522.803.527 1.282v19.351c0 .483-.119 1.039-.527 1.284a1.825 1.825 0 0 1-1.282.527H16.263a5.795 5.795 0 0 0-.427-1.348l.633-.63h13.304a.667.667 0 0 0 .664-.667V3.033a.673.673 0 0 0-.67-.67h-3.639v6.97l-3.845-1.922-3.826 1.922v-6.97H7.861zM2.463 20.887l-.839 4.747a.382.382 0 0 1-.079.169 1.849 1.849 0 0 0-.425.865.48.48 0 0 0 .132.48l3.041 3.049c.202.198.46.329.738.377.321.099.663.109.989.029h.024l.572-.142c.878-.214 1.643-.403 2.355-1.055l.912-.952a.316.316 0 0 1 .037-.045c.013 0 .103-.103.224-.216.622-.612 1.398-1.366.926-2.025l-.367-.367c-.177.171-.364.338-.543.501s-.319.28-.461.422a.388.388 0 0 1-.546 0 .388.388 0 0 1 0-.546c.14-.142.316-.298.496-.459.62-.543 1.319-1.168.947-1.714l-.361-.361-.053-.066c-.208.214-.438.417-.662.614-.163.145-.316.28-.459.422a.388.388 0 0 1-.661-.273.377.377 0 0 1 .115-.273c.14-.142.316-.298.496-.456.62-.546 1.319-1.171.947-1.717l-.361-.361a.512.512 0 0 1-.063-.084l-1.055 1.055a.388.388 0 0 1-.546 0 .388.388 0 0 1 0-.546l1.991-1.991c.477-.477.585-.973.462-1.35-.045-.137 0-.14-.1-.237a.86.86 0 0 0-.166-.129c-.029 0-.05-.016-.079-.045a.65.65 0 0 0-.106-.042c-.33-.111-.643.084-1.076.451l-.018.016c-.047.04-.095.082-.142.129l-4.143 4.143a.388.388 0 0 1-.659-.245.382.382 0 0 1 .077-.259l-1.508-1.511zm2.495.284.134-.132 2.724-2.727a2.655 2.655 0 0 1-1.548-2.743 2.653 2.653 0 0 1 2.157-2.295 2.665 2.665 0 0 1 2.833 1.375 2.66 2.66 0 0 1-.468 3.115l-.026.026a1.613 1.613 0 0 1 .285.322l3.381-3.368a1.343 1.343 0 0 1 0-1.886l-2.518-2.518a1.33 1.33 0 0 1-1.882 0l-7.007 7.007a1.343 1.343 0 0 1 0 1.886l1.936 1.938zm5.944-.896c-.096.134-.204.26-.322.374l-.393.396a.439.439 0 0 1 .084.063l.377.38a.407.407 0 0 1 .055.069 1.296 1.296 0 0 1 .069 1.582c.053.019.1.05.14.09l.377.377a.465.465 0 0 1 .055.071 1.318 1.318 0 0 1 0 1.674.301.301 0 0 1 .047.04l.377.377c.02.023.038.046.055.071.878 1.2-.169 2.218-1.01 3.041l-.216.216-.936.984-.032.029c-.857.791-1.709.986-2.692 1.226l-.562.14h-.016c-.469.14-.963.175-1.448.103a2.132 2.132 0 0 1-1.147-.591L.497 27.704a1.209 1.209 0 0 1-.353-1.179c.119-.456.34-.879.646-1.237l.86-4.95v-.021c0-.061.021-.129.034-.206l-1.685-1.682L11.117 7.311l6.374 6.374-6.59 6.59z" style="fill:var(--color3, #ddd5c6)"/></symbol><symbol id="icon-Vector-2" viewBox="0 0 47 32"><path fill="#ddd5c6" d="m10.944 4.855 1.802.034L8.758 17.9a13.778 13.778 0 0 1 .031.008c-3.499-.777-6.39.357-8.788 3.053l15.672 7.315c.099-.77.144-1.491.129-2.17.004.098.011.199.011.3h14.56c.004 3.09 2.539 5.591 5.662 5.591s5.658-2.505 5.662-5.591h4.766c.33-6.41-2.728-11.34-8.087-11.813h7.21c.573 0 1.04-.466 1.04-1.029v-1.13c0-.559-.463-1.014-1.025-1.014h-.091V3.677a.933.933 0 0 0-.934-.924H31.143a.933.933 0 0 0-.933.924v7.739h-6.641c-.702-.023-1.074.293-1.078.988v3.627c2.99 2.328 3.446 5.967.717 8.017h-4.425c-.114-3.488-2.129-5.614-5.476-7.964l1.996-6.087c.823-1.893.281-3.327-.922-4.33.376-1.194.645-2.215.562-3.049l2.091.428c.679.139.854.379 1.074-.27.038-.113.068-.222.087-.334.171-.89.065-.83-.664-.969L15.3 1.045h-.664l-.82-.454A4.131 4.131 0 0 0 12.298.08l-.717-.045c-.736 0-1.563-.203-1.988.469a.377.377 0 0 0-.015.113c-.3.101-.558.323-.751.627-.239.368-.383.871-.383 1.419s.148 1.051.383 1.419c.266.413.649.676 1.089.687.254.18.656.079 1.028.086zm28.19 4.296h4.728v.822h-4.728v-.822zM35.541 3.56h3.415v3.672l-1.791-1.374-1.624 1.374V3.56zm3.593 7.731h4.728v.822h-4.728v-.822zM3.002 22.365l5.047 2.366-1.639-.743a2.471 2.471 0 0 0-1.969 2.411c0 1.363 1.116 2.467 2.493 2.467s2.493-1.104 2.493-2.467c0-.421-.106-.815-.292-1.164l3.446 1.615c-.232 2.884-2.671 5.152-5.643 5.152-3.127 0-5.662-2.508-5.662-5.602a5.507 5.507 0 0 1 1.727-4.033zM9.589 1.577c.023.721.072 1.648.106 2.272a.9.9 0 0 1-.175-.207c-.159-.244-.254-.593-.254-.984s.099-.74.254-.984l.068-.098zm23.956 24.828h4.986c-.004 1.359-1.119 2.456-2.493 2.456s-2.489-1.096-2.493-2.456z" style="fill:var(--color3, #ddd5c6)"/></symbol><symbol id="icon-layer1" viewBox="0 0 32 32"><path fill="#ddd5c6" d="M5.816 25.068a1.132 1.132 0 1 0 0 2.262h6.789a1.132 1.132 0 1 0 0-2.262H5.816z" style="fill:var(--color3, #ddd5c6)"/><path fill="#ddd5c6" d="M4.684.173a1.127 1.127 0 0 0-1.012.628L.277 7.63c-.072.149-.11.312-.113.477l-.007.026v22.592a1.132 1.132 0 0 0 1.131 1.131h29.421a1.132 1.132 0 0 0 1.131-1.131V8.131a1.137 1.137 0 0 0-.119-.502L28.326.8a1.137 1.137 0 0 0-1.012-.628H4.682zm.699 2.263h7.026l-.74 4.566H3.116l2.268-4.566zm9.315 0h4.869l.762 4.566h-6.37l.738-4.566zm7.163 0h4.754l2.27 4.566h-6.261l-.763-4.566zm-19.44 6.83h9.053v11.276a1.132 1.132 0 0 0 1.932.8l3.726-3.726 3.726 3.726a1.127 1.127 0 0 0 1.233.245 1.138 1.138 0 0 0 .699-1.045V9.266h6.789v20.329H2.421V9.266zm11.316 0h6.789v8.544l-2.595-2.595a1.132 1.132 0 0 0-1.6 0l-2.595 2.595V9.266z" style="fill:var(--color3, #ddd5c6)"/></symbol><symbol id="icon-Arrow-2" viewBox="0 0 168 32"><path fill="#705a66" d="M165.414 17.414a2 2 0 0 0 0-2.828L152.686 1.858a2 2 0 1 0-2.828 2.828L161.172 16l-11.314 11.314a2 2 0 1 0 2.828 2.828l12.728-12.728zM0 18h164v-4H0v4z" style="fill:var(--color1, #705a66)"/></symbol><symbol id="icon-Arrow-3" viewBox="0 0 168 32"><path fill="#705a66" d="M2.586 17.414a2 2 0 0 1 0-2.828L15.314 1.858a2 2 0 1 1 2.828 2.828L6.828 16l11.314 11.314a2 2 0 1 1-2.828 2.828L2.586 17.414zM168 18H4v-4h164v4z" style="fill:var(--color1, #705a66)"/></symbol><symbol id="icon-Vector-1" viewBox="0 0 32 32"><path fill="#705a66" d="M9.538 25.231c-1.692 0-3.062 1.385-3.062 3.077s1.369 3.077 3.062 3.077c1.692 0 3.077-1.385 3.077-3.077s-1.385-3.077-3.077-3.077zM.308.615v3.077h3.077l5.538 11.677-2.077 3.769a2.976 2.976 0 0 0-.385 1.477 3.086 3.086 0 0 0 3.077 3.077H28v-3.077H10.185a.381.381 0 0 1-.385-.385l.046-.185 1.385-2.508h11.462a3.062 3.062 0 0 0 2.692-1.585l5.508-9.985c.123-.215.185-.477.185-.738 0-.846-.692-1.538-1.538-1.538H6.786L5.34.614H.309zm24.615 24.616c-1.692 0-3.062 1.385-3.062 3.077s1.369 3.077 3.062 3.077C26.615 31.385 28 30 28 28.308s-1.385-3.077-3.077-3.077z" style="fill:var(--color1, #705a66)"/></symbol><symbol id="icon-Instagram" viewBox="0 0 31 32"><path fill="#705a66" d="M30.634 9.029c-.074-1.636-.338-2.755-.713-3.732-.393-1.008-.916-1.869-1.77-2.718S26.443 1.196 25.435.808c-.977-.381-2.096-.639-3.73-.713-1.641-.074-2.163-.092-6.33-.092-4.173 0-4.695.018-6.33.092s-2.753.338-3.73.713c-1.014.394-1.874.916-2.722 1.771S1.21 4.288.823 5.297C.448 6.275.184 7.394.11 9.029c-.074 1.642-.092 2.164-.092 6.333 0 4.175.018 4.698.092 6.333s.338 2.755.713 3.732a7.488 7.488 0 0 0 1.77 2.718 7.394 7.394 0 0 0 2.716 1.771c.977.381 2.096.64 3.73.713 1.641.074 2.163.092 6.33.092 4.173 0 4.695-.018 6.33-.092s2.753-.338 3.73-.713c1.008-.393 1.868-.916 2.716-1.771s1.383-1.709 1.77-2.718c.381-.978.639-2.097.713-3.732.074-1.642.092-2.164.092-6.333s-.012-4.698-.086-6.333zm-2.759 12.544c-.068 1.5-.32 2.318-.529 2.853-.277.713-.615 1.23-1.155 1.771s-1.051.867-1.77 1.156c-.541.209-1.358.461-2.851.529-1.616.074-2.102.092-6.207.092s-4.59-.018-6.207-.092c-1.499-.068-2.317-.32-2.851-.529-.713-.277-1.229-.615-1.77-1.156s-.866-1.052-1.155-1.771c-.209-.541-.461-1.359-.529-2.853-.074-1.617-.092-2.103-.092-6.21s.018-4.593.092-6.21c.068-1.5.32-2.318.529-2.853.277-.713.615-1.23 1.155-1.771s1.051-.867 1.77-1.156c.541-.209 1.358-.461 2.851-.529 1.616-.074 2.102-.092 6.207-.092s4.59.018 6.207.092c1.499.068 2.317.32 2.851.529.713.277 1.229.615 1.77 1.156s.866 1.051 1.155 1.771c.209.541.461 1.359.529 2.853.074 1.617.092 2.103.092 6.21s-.025 4.593-.092 6.21z" style="fill:var(--color1, #705a66)"/><path fill="#705a66" d="M15.363 7.467a7.89 7.89 0 0 0-7.891 7.895 7.89 7.89 0 1 0 15.781 0 7.885 7.885 0 0 0-7.89-7.895zm0 13.018c-2.827 0-5.119-2.293-5.119-5.122s2.292-5.122 5.119-5.122 5.119 2.294 5.119 5.122-2.292 5.122-5.119 5.122zM23.561 9.004a1.845 1.845 0 1 0-.001-3.69 1.845 1.845 0 0 0 .001 3.69z" style="fill:var(--color1, #705a66)"/><path fill="#705a66" d="M0 15.362c0 4.175.018 4.698.092 6.333s.338 2.755.713 3.732a7.488 7.488 0 0 0 1.77 2.718 7.47 7.47 0 0 0 2.716 1.771c.977.381 2.095.64 3.73.713 1.641.074 2.163.092 6.33.092 4.173 0 4.695-.018 6.33-.092s2.753-.338 3.73-.713a7.47 7.47 0 0 0 2.716-1.771 7.488 7.488 0 0 0 1.77-2.718c.381-.978.639-2.097.713-3.732.074-1.642.092-2.164.092-6.333 0-4.175-.018-4.698-.092-6.333s-.338-2.755-.713-3.732a7.496 7.496 0 0 0-1.77-2.718 7.337 7.337 0 0 0-2.71-1.771c-.977-.381-2.096-.639-3.73-.713-1.641-.074-2.163-.092-6.33-.092-4.173 0-4.695.018-6.33.092s-2.753.338-3.73.713c-1.008.394-1.868.916-2.716 1.771S1.198 4.288.811 5.297C.43 6.275.166 7.394.092 9.029S0 11.187 0 15.362zm2.772 0c0-4.101.018-4.593.092-6.21.068-1.5.32-2.318.529-2.853.277-.713.615-1.23 1.155-1.771s1.051-.867 1.77-1.156c.541-.209 1.358-.461 2.851-.529 1.616-.074 2.102-.092 6.207-.092s4.59.018 6.207.092c1.499.068 2.317.32 2.851.529.713.277 1.229.615 1.77 1.156s.866 1.051 1.155 1.771c.209.541.461 1.359.529 2.853.074 1.617.092 2.103.092 6.21s-.018 4.593-.092 6.21c-.068 1.5-.32 2.318-.529 2.853-.277.713-.615 1.23-1.155 1.771s-1.051.867-1.77 1.156c-.541.209-1.358.461-2.851.529-1.616.074-2.102.092-6.207.092s-4.59-.018-6.207-.092c-1.499-.068-2.317-.32-2.851-.529-.713-.277-1.229-.615-1.77-1.156s-.866-1.052-1.155-1.771c-.209-.541-.461-1.359-.529-2.853-.08-1.617-.092-2.109-.092-6.21z" style="fill:var(--color1, #705a66)"/></symbol><symbol id="icon-Facebook" viewBox="0 0 31 32"><path fill="#705a66" d="m22.034 17.062.796-5.242h-4.98v-3.4c0-1.434.694-2.833 2.925-2.833h2.265V1.124S20.985.77 19.021.77c-4.103 0-6.782 2.511-6.782 7.055v3.995H7.68v5.242h4.559v12.672a17.914 17.914 0 0 0 5.61 0V17.062h4.184z" style="fill:var(--color1, #705a66)"/></symbol><symbol id="icon-Vector" viewBox="0 0 35 32"><path fill="#705a66" d="M13.898 30.547a1.09 1.09 0 0 1-1.091-1.091v-9.927c0-.313.134-.609.368-.817l4.599-4.076-7.598 4.417a1.1 1.1 0 0 1-1.036.033L.603 14.831a1.09 1.09 0 0 1 .092-1.992L33.422.076a1.08 1.08 0 0 1 1.098.182c.305.256.447.659.368 1.05l-5.691 28.363a1.092 1.092 0 0 1-1.61.733l-9.126-5.197-3.69 4.906a1.096 1.096 0 0 1-.873.433zm4.267-7.854c.185 0 .371.047.54.143l8.647 4.925 5.002-24.926L3.782 13.979l5.806 2.894 16.567-9.632a1.086 1.086 0 0 1 1.431.304 1.09 1.09 0 0 1-.16 1.456L14.988 20.02v6.173l2.305-3.065c.212-.284.54-.436.871-.436z" style="fill:var(--color1, #705a66)"/></symbol><symbol id="icon-circle-right" viewBox="0 0 32 32"><path d="M16 0C7.163 0 0 7.163 0 16s7.163 16 16 16 16-7.163 16-16S24.837 0 16 0zm0 29C8.82 29 3 23.18 3 16S8.82 3 16 3s13 5.82 13 13-5.82 13-13 13z"/><path d="m11.086 22.086 2.829 2.829 8.914-8.914-8.914-8.914-2.828 2.828 6.086 6.086z"/></symbol></defs></svg>